<svg width="212" height="117" viewBox="0 0 212 117" fill="none" xmlns="http://www.w3.org/2000/svg"><circle cx="159.694" cy="66.224" r="6.821" transform="rotate(-43.932 159.694 66.224)" stroke="#000" stroke-width="1.463"/><path d="M173.446 52.977a19.096 19.096 0 11-5.802-4.113m11.921-1.783a27.593 27.593 0 01-35.773 41.692 27.594 27.594 0 01-8.051-36.242 27.59 27.59 0 0135.317-11.45" stroke="#1867FF" stroke-width="1.463"/><path d="M185.685 41.187a36.091 36.091 0 01-21.531 60.852 36.088 36.088 0 1110.388-68.706" stroke="#1867FF" stroke-width="1.463"/><path d="M160.166 66.226l30.212-44.374m0 0v-5.665m0 5.665l5.665-1.888" stroke="#000" stroke-width="1.463" stroke-linecap="round" stroke-linejoin="round"/><path d="M61.947 24.606h78.343V18.75a4.393 4.393 0 00-4.393-4.393H61.214a4.393 4.393 0 00-4.393 4.393v5.857h5.126zm9.518-16.108a4.393 4.393 0 00-4.393 4.393v1.464h62.235v-1.464a4.393 4.393 0 00-4.393-4.393h-53.45zm-2.929 107.631h57.11l.305-2.929H68.325l.211 2.929zm62.236-21.966l6.589-54.181H59.75l5.125 54.181h65.897z" fill="#1867FF"/><path d="M68.536 116.129h57.11m-57.11 0l-.21-2.929m.21 2.929h57.11m0 0l.305-2.929m9.214-88.594H61.947m73.218 0l-1.599 15.376m1.599-15.376h5.125m-78.343 0l1.107 15.376m-1.107-15.376H56.82m0 0h83.469m-83.469 0V18.75a4.393 4.393 0 014.393-4.393h5.858m73.218 10.25V18.75a4.393 4.393 0 00-4.393-4.393h-6.59m-62.235 0V12.89a4.393 4.393 0 014.393-4.393h53.449a4.393 4.393 0 014.393 4.393v1.464m-62.235 0h62.235M68.325 113.2h57.626m-57.626 0l-1.37-19.037M125.95 113.2l1.98-19.037m5.635-54.181H63.054m70.512 0h3.795l-6.589 54.181h-2.841M63.054 39.982H59.75l5.125 54.181h2.08m0 0h60.976" stroke="#1867FF" stroke-width="1.464" stroke-linecap="round" stroke-linejoin="round"/><path opacity=".2" d="M65.607 54.65c0-18.181 14.424 0 32.216 0s32.216-18.181 32.216 0c0 18.183-14.424 32.922-32.216 32.922s-32.216-14.74-32.216-32.921z" fill="#F5F5F5"/><path d="M116.861 67.072c0 10.514-8.523 0-19.037 0s-19.037 10.514-19.037 0 8.523-19.037 19.037-19.037 19.037 8.523 19.037 19.037z" fill="#F5F5F5"/><path d="M68.48 2.092c.199.394.044.95-.42 1.632-.288.425-.697.9-1.214 1.415a24.897 24.897 0 01-1.761 1.577 37 37 0 01-.437.353 57.52 57.52 0 01-3.72 2.7 96.48 96.48 0 01-4.57 2.878 127.593 127.593 0 01-4.94 2.781 141.819 141.819 0 01-5.474 2.776c-4.07 1.956-7.905 3.555-11.17 4.695a52.682 52.682 0 01-4.379 1.34c-1.395.353-2.584.562-3.517.612-1.197.064-1.971-.133-2.22-.623-.509-1.009 7.473-6.4 19.574-12.512C56.333 5.603 68.06 1.26 68.48 2.092z" fill="#fff"/><path d="M24.659 24.228L27 28.863c.248.49 1.023.687 2.219.623l-2.341-4.635c-1.197.064-1.971-.133-2.22-.623zm5.736.011c-1.395.353-2.584.562-3.517.612l2.341 4.635c.933-.05 2.122-.26 3.518-.612l-2.342-4.635z" fill="#fff"/><path d="M30.395 24.239l2.342 4.635a52.643 52.643 0 004.378-1.34l-2.342-4.635a52.682 52.682 0 01-4.378 1.34zm4.378-1.34l2.342 4.635a94.27 94.27 0 005.574-2.164 128.598 128.598 0 005.597-2.53l-2.342-4.636c-4.07 1.956-7.905 3.555-11.17 4.695z" fill="#fff"/><path d="M48.485 16.952c-.855.432-1.703.85-2.54 1.252l2.34 4.635a142.487 142.487 0 005.474-2.776l-2.342-4.635c-.953.51-1.932 1.019-2.932 1.524z" fill="#fff"/><path d="M51.417 15.428l2.342 4.635c1.74-.93 3.394-1.863 4.941-2.781l-2.341-4.635a127.593 127.593 0 01-4.942 2.781z" fill="#fff"/><path d="M56.359 12.647l2.341 4.635a96.529 96.529 0 004.57-2.877L60.928 9.77a96.48 96.48 0 01-4.57 2.877z" fill="#fff"/><path d="M60.928 9.77l2.342 4.635a57.535 57.535 0 003.72-2.7l-2.342-4.636a57.52 57.52 0 01-3.72 2.7z" fill="#fff"/><path d="M65.085 6.716a37 37 0 01-.437.353l2.341 4.635a26.792 26.792 0 002.198-1.93L66.846 5.14a24.897 24.897 0 01-1.761 1.577zm1.761-1.576l2.341 4.634c.517-.516.926-.99 1.215-1.415L68.06 3.724c-.288.425-.697.9-1.214 1.415zm3.975 1.587L68.48 2.092c.199.394.044.95-.42 1.632l2.342 4.635c.463-.683.618-1.238.42-1.632z" fill="#fff"/><path d="M68.48 2.092c-.42-.83-12.147 3.511-24.248 9.624-12.1 6.112-20.083 11.503-19.573 12.512M68.48 2.092l2.341 4.635c.2.394.044.949-.42 1.632M68.48 2.092c.199.394.044.95-.42 1.632m-43.4 20.504L27 28.863c.248.49 1.023.687 2.219.623m-4.56-5.258c.248.49 1.022.687 2.219.623m3.517-.612c-1.395.353-2.584.562-3.517.612m3.517-.612l2.342 4.635m-2.342-4.635a52.682 52.682 0 004.378-1.34m-7.895 1.952l2.341 4.635m0 0c.933-.05 2.122-.26 3.518-.612m0 0a52.643 52.643 0 004.378-1.34m-2.342-4.635l2.342 4.635m-2.342-4.635c3.266-1.14 7.1-2.739 11.171-4.695m-8.83 9.33a94.27 94.27 0 005.575-2.164m-2.21-4.374l2.21 4.374m0 0a128.598 128.598 0 005.597-2.53m-2.342-4.636a142.487 142.487 0 005.473-2.776m-5.473 2.776l2.342 4.635m0 0a142.487 142.487 0 005.473-2.776m-2.342-4.635l2.342 4.635m-2.342-4.635c1.74-.93 3.395-1.863 4.942-2.781m-2.6 7.416c1.74-.93 3.394-1.863 4.941-2.781m-2.341-4.635l2.341 4.635m-2.341-4.635a96.48 96.48 0 004.57-2.877M58.7 17.282a96.529 96.529 0 004.57-2.877M60.928 9.77l2.342 4.635M60.928 9.77a57.523 57.523 0 003.72-2.7m-1.378 7.335a57.535 57.535 0 003.72-2.7m-2.342-4.636c.15-.119.295-.236.437-.353a24.599 24.599 0 001.761-1.577m-2.198 1.93l2.341 4.635m0 0a26.79 26.79 0 002.198-1.93M66.846 5.14l2.341 4.635M66.846 5.14c.517-.516.926-.99 1.214-1.415m1.127 6.05c.517-.516.926-.99 1.215-1.415M68.06 3.724l2.342 4.635" stroke="#1867FF" stroke-width=".944"/><path d="M49.886 49.19c-.112.427-.596.74-1.395.944-.498.128-1.118.213-1.847.257a24.93 24.93 0 01-2.364.016 39.14 39.14 0 01-.561-.025 57.499 57.499 0 01-4.575-.439 96.465 96.465 0 01-5.33-.869 127.582 127.582 0 01-5.545-1.187 141.72 141.72 0 01-5.94-1.544c-4.345-1.23-8.277-2.57-11.48-3.878a52.642 52.642 0 01-4.168-1.894c-1.28-.66-2.309-1.29-3.041-1.87-.94-.744-1.39-1.405-1.25-1.936.593-2.27 11.707-1.33 24.823 2.102 13.116 3.43 23.267 8.053 22.673 10.323z" fill="#fff"/><path d="M2.39 36.765l-1.315 5.023c-.139.532.311 1.192 1.25 1.936l1.315-5.023c-.94-.744-1.39-1.405-1.25-1.936zm4.291 3.806c-1.28-.66-2.309-1.29-3.041-1.87l-1.314 5.023c.732.58 1.762 1.21 3.041 1.87l1.314-5.023zm0 0l-1.314 5.024a52.64 52.64 0 004.168 1.894l1.315-5.024a52.642 52.642 0 01-4.169-1.894z" fill="#fff"/><path d="M10.85 42.465L9.535 47.49a94.156 94.156 0 005.61 2.069 129.58 129.58 0 005.87 1.81l1.314-5.025c-4.345-1.23-8.277-2.57-11.48-3.878z" fill="#fff"/><path d="M25.063 47.087c-.927-.242-1.84-.49-2.734-.744l-1.314 5.024a141.998 141.998 0 005.94 1.543l1.314-5.023a141.72 141.72 0 01-3.206-.8z" fill="#fff"/><path d="M28.27 47.887l-1.315 5.023c1.92.455 3.777.852 5.545 1.188l1.314-5.024a127.582 127.582 0 01-5.545-1.187z" fill="#fff"/><path d="M33.814 49.074L32.5 54.098c1.892.36 3.68.65 5.33.869l1.314-5.024a96.465 96.465 0 01-5.33-.869z" fill="#fff"/><path d="M39.144 49.943l-1.315 5.024a58.22 58.22 0 004.575.44l1.315-5.025a57.499 57.499 0 01-4.575-.439z" fill="#fff"/><path d="M44.28 50.407a39.14 39.14 0 01-.561-.025l-1.315 5.024c1.105.056 2.087.06 2.926.009l1.314-5.024a24.93 24.93 0 01-2.364.016z" fill="#fff"/><path d="M46.644 50.391l-1.314 5.024c.729-.044 1.35-.13 1.847-.257l1.314-5.024c-.498.128-1.118.213-1.847.257z" fill="#fff"/><path d="M48.572 54.213l1.314-5.023c-.112.427-.596.74-1.395.944l-1.314 5.024c.8-.205 1.283-.518 1.395-.945z" fill="#fff"/><path d="M49.886 49.19c.594-2.27-9.557-6.892-22.673-10.323-13.116-3.431-24.23-4.372-24.823-2.102M49.886 49.19l-1.314 5.023c-.112.427-.596.74-1.395.945m2.709-5.968c-.112.427-.596.74-1.395.944M2.39 36.764l-1.315 5.024c-.139.532.311 1.192 1.25 1.936m.065-6.96c-.14.532.31 1.193 1.25 1.937m3.041 1.87c-1.28-.66-2.309-1.29-3.041-1.87m3.041 1.87l-1.314 5.024m1.314-5.024a52.642 52.642 0 004.169 1.894m-7.21-3.764l-1.314 5.023m0 0c.732.58 1.762 1.21 3.041 1.87m0 0a52.64 52.64 0 004.168 1.895m1.315-5.024L9.535 47.49m1.315-5.024c3.202 1.308 7.134 2.649 11.48 3.878M9.534 47.49a94.156 94.156 0 005.61 2.069m1.24-4.74l-1.24 4.74m0 0a129.58 129.58 0 005.87 1.81m1.314-5.025a142.934 142.934 0 005.94 1.544m-5.94-1.544l-1.314 5.024m0 0a141.998 141.998 0 005.94 1.543m1.314-5.023l-1.314 5.023m1.314-5.023c1.92.454 3.778.851 5.545 1.187m-6.86 3.836c1.92.455 3.778.852 5.546 1.188m1.314-5.024L32.5 54.098m1.314-5.024c1.892.36 3.681.651 5.33.87M32.5 54.097c1.892.36 3.68.65 5.33.869m1.314-5.024l-1.315 5.024m1.315-5.024a58.13 58.13 0 004.575.44m-5.89 4.584a58.22 58.22 0 004.575.44m1.315-5.025c.19.01.377.018.56.025.88.031 1.671.026 2.365-.016m-2.925-.009l-1.315 5.024m0 0c1.105.056 2.087.06 2.926.009m1.314-5.024l-1.314 5.024m1.314-5.024c.729-.044 1.35-.13 1.847-.257m-3.161 5.28c.729-.043 1.35-.129 1.847-.256m1.314-5.024l-1.314 5.024" stroke="#1867FF" stroke-width=".944"/><path d="M77.94 62.447c.106.429-.169.935-.773 1.498-.376.35-.88.722-1.499 1.11A25.25 25.25 0 0173.6 66.2c-.164.082-.332.165-.504.247a57.505 57.505 0 01-4.227 1.805 96.6 96.6 0 01-5.095 1.789c-1.713.55-3.534 1.092-5.437 1.612a141.695 141.695 0 01-5.954 1.488c-4.404 1.001-8.497 1.707-11.935 2.091a52.6 52.6 0 01-4.566.333c-1.44.033-2.645-.028-3.566-.186-1.18-.204-1.892-.568-2.025-1.101-.565-2.278 9.643-6.772 22.8-10.039 13.158-3.267 24.283-4.069 24.848-1.792z" fill="#fff"/><path d="M30.291 74.278l1.252 5.04c.132.533.843.897 2.024 1.1l-1.251-5.04c-1.18-.203-1.892-.567-2.025-1.1z" fill="#fff"/><path d="M35.882 75.565c-1.44.033-2.645-.028-3.566-.186l1.251 5.04c.92.158 2.127.219 3.566.186l-1.251-5.04z" fill="#fff"/><path d="M35.882 75.565l1.251 5.04a52.635 52.635 0 004.566-.333l-1.251-5.04a52.6 52.6 0 01-4.566.333z" fill="#fff"/><path d="M40.448 75.232l1.251 5.04a94.166 94.166 0 005.916-.869c1.912-.339 3.931-.747 6.02-1.222l-1.252-5.04c-4.404 1.001-8.497 1.707-11.935 2.091zm14.692-2.746c-.93.23-1.85.45-2.757.655l1.252 5.04a142.005 142.005 0 005.953-1.489l-1.251-5.04c-1.043.285-2.11.564-3.198.834z" fill="#fff"/><path d="M58.337 71.653l1.251 5.04a127.59 127.59 0 005.437-1.613l-1.251-5.04a126.498 126.498 0 01-5.437 1.613z" fill="#fff"/><path d="M63.774 70.04l1.25 5.04a96.537 96.537 0 005.096-1.788l-1.251-5.04a96.6 96.6 0 01-5.095 1.789zm5.095-1.788l1.251 5.04a57.508 57.508 0 004.227-1.805l-1.251-5.04a57.505 57.505 0 01-4.227 1.805z" fill="#fff"/><path d="M73.6 66.2c-.164.082-.332.165-.504.247l1.251 5.04a26.78 26.78 0 002.573-1.393l-1.252-5.04c-.589.37-1.282.753-2.068 1.146z" fill="#fff"/><path d="M75.668 65.055l1.252 5.04c.618-.389 1.122-.76 1.498-1.11l-1.25-5.04c-.377.35-.88.722-1.5 1.11z" fill="#fff"/><path d="M79.19 67.487l-1.25-5.04c.106.429-.169.935-.773 1.498l1.251 5.04c.604-.563.879-1.07.773-1.498z" fill="#fff"/><path d="M77.94 62.447c-.566-2.277-11.69-1.475-24.848 1.792-13.158 3.267-23.366 7.761-22.8 10.039m47.647-11.83l1.252 5.04c.106.427-.169.934-.773 1.496m-.479-6.537c.107.429-.168.935-.772 1.498M30.291 74.278l1.252 5.04c.132.533.843.897 2.024 1.1m-3.276-6.14c.133.533.844.897 2.025 1.1m3.566.187c-1.44.033-2.645-.028-3.566-.186m3.566.186l1.251 5.04m-1.251-5.04a52.628 52.628 0 004.566-.333m-8.132.147l1.251 5.04m0 0c.92.158 2.127.219 3.566.186m0 0a52.635 52.635 0 004.566-.333m-1.251-5.04l1.251 5.04m-1.251-5.04c3.438-.384 7.531-1.09 11.935-2.09M41.7 80.271a94.166 94.166 0 005.916-.869m-1.18-4.756l1.18 4.756m0 0c1.912-.339 3.931-.747 6.02-1.222m-1.252-5.04a141.997 141.997 0 005.954-1.488m-5.954 1.488l1.252 5.04m0 0a142.005 142.005 0 005.953-1.489m-1.251-5.04l1.251 5.04m-1.251-5.04a128.01 128.01 0 005.437-1.611m-4.186 6.651a127.59 127.59 0 005.437-1.612m-1.251-5.04l1.25 5.04m-1.25-5.04a96.6 96.6 0 005.095-1.788m-3.844 6.828a96.537 96.537 0 005.095-1.788m-1.251-5.04l1.251 5.04m-1.251-5.04a57.505 57.505 0 004.227-1.805m-2.976 6.845a57.508 57.508 0 004.227-1.805m-1.251-5.04c.172-.082.34-.165.504-.247.787-.393 1.48-.776 2.068-1.145m-2.572 1.392l1.251 5.04m0 0a26.78 26.78 0 002.573-1.393m-1.252-5.04l1.252 5.04m-1.252-5.04c.62-.387 1.123-.76 1.5-1.11m-.248 6.15c.618-.388 1.122-.76 1.498-1.11m-1.25-5.04l1.25 5.04" stroke="#1867FF" stroke-width=".944"/></svg>